<svg width="23" height="23" viewBox="0 0 23 23" fill="none" xmlns="http://www.w3.org/2000/svg">
<path fill-rule="evenodd" clip-rule="evenodd" d="M2.57143 0C1.15126 0 0 1.15126 0 2.57143V15.4286C0 16.8487 1.15126 18 2.57143 18H15.4286C16.8487 18 18 16.8487 18 15.4286V2.57143C18 1.15126 16.8487 0 15.4286 0H2.57143Z" fill="#1A1460"/>
<path fill-rule="evenodd" clip-rule="evenodd" d="M6.85658 4.28613C5.43642 4.28613 4.28516 5.4374 4.28516 6.85756V19.7147C4.28516 21.1348 5.43642 22.2861 6.85658 22.2861H19.7137C21.1338 22.2861 22.2852 21.1348 22.2852 19.7147V6.85756C22.2852 5.4374 21.1338 4.28613 19.7137 4.28613H6.85658Z" fill="#FC92A5"/>
</svg>
