<svg width="147" height="64" viewBox="0 0 147 64" fill="none" xmlns="http://www.w3.org/2000/svg">
<path d="M9.05254 19.6326C8.87296 18.7888 8.77524 17.9134 8.77524 17.0168C8.77524 10.0527 14.4413 4.38789 21.4041 4.38789C28.3669 4.38789 34.033 10.054 34.033 17.0168C34.033 23.9796 28.3669 29.6456 21.4041 29.6456C14.4413 29.6456 8.77524 35.3117 8.77524 42.2745C8.77524 49.2373 14.4413 54.9034 21.4041 54.9034C28.3669 54.9034 34.033 49.2373 34.033 42.2745C34.033 38.1758 32.0695 34.5274 29.0337 32.2192C34.5955 29.4172 38.4209 23.656 38.4209 17.0154C38.4222 7.63358 30.7886 0 21.4054 0C12.0223 0 4.38867 7.63358 4.38867 17.0168C4.38867 18.8284 4.67653 20.5728 5.2034 22.2115C6.40237 21.2422 7.68982 20.3773 9.05254 19.6326ZM29.6478 42.2759C29.6478 46.8275 25.9584 50.5182 21.4054 50.5182C16.8525 50.5182 13.1631 46.8275 13.1631 42.2759C13.1631 37.7242 16.8525 34.0335 21.4054 34.0335C25.9584 34.0335 29.6478 37.7242 29.6478 42.2759Z" fill="white"/>
<path d="M35.6458 32.9785C37.3981 35.6537 38.4214 38.8466 38.4214 42.2772C38.4214 51.6603 30.7879 59.2939 21.4047 59.2939C12.0215 59.2939 4.38789 51.6603 4.38789 42.2772C4.38789 32.894 12.0215 25.2604 21.4047 25.2604C25.9563 25.2604 29.647 21.5697 29.647 17.0181C29.647 12.4664 25.9576 8.77576 21.4047 8.77576C16.8517 8.77576 13.1623 12.4664 13.1623 17.0181C13.1623 18.8575 13.7645 20.5543 14.7826 21.9262C6.21277 24.7203 0 32.7844 0 42.2758C0 54.0781 9.60239 63.6805 21.4047 63.6805C33.2069 63.6805 42.8093 54.0781 42.8093 42.2758C42.8093 37.5552 41.2697 33.1897 38.6723 29.6469C37.7823 30.8605 36.7682 31.9776 35.6471 32.9785H35.6458ZM21.4047 13.1623C23.5306 13.1623 25.2591 14.8921 25.2591 17.0167C25.2591 19.1414 23.5293 20.8712 21.4047 20.8712C19.28 20.8712 17.5502 19.1414 17.5502 17.0167C17.5502 14.8921 19.28 13.1623 21.4047 13.1623Z" fill="white"/>
<path d="M61.2497 28.0901C55.5361 28.0901 50.2754 32.7157 50.2754 39.8356C50.2754 47.3635 55.6721 51.762 61.7938 51.762C67.2803 51.762 70.8178 48.5427 71.9521 44.6883L66.9185 43.1922C66.1935 45.1874 64.6512 46.5937 61.84 46.5937C58.8465 46.5937 56.3535 44.4625 56.2175 41.5152H72.1792C72.1792 41.4241 72.2703 40.5169 72.2703 39.656C72.2703 32.4912 68.1439 28.0927 61.2511 28.0927L61.2497 28.0901ZM56.3522 37.3861C56.4882 35.346 58.2114 32.9877 61.3408 32.9877C64.7873 32.9877 66.2384 35.1651 66.3295 37.3861H56.3535H56.3522Z" fill="white"/>
<path d="M81.1555 28.7701H75.125V51.0806H81.1555V28.7701Z" fill="white"/>
<path d="M100.746 31.4004C99.9744 29.9044 97.9343 28.3621 94.3968 28.3621C88.2751 28.3621 84.0127 33.3494 84.0127 39.2453C84.0127 45.503 88.4574 50.0836 94.3968 50.0836C97.6161 50.0836 99.7024 48.6773 100.61 47.2262V48.8582C100.61 53.1656 98.4783 55.071 94.6688 55.071C91.8113 55.071 89.8623 53.3029 89.4543 50.8535L84.0127 52.3046C84.6478 56.5671 88.7294 60.3766 94.851 60.3766C103.24 60.3766 106.55 54.799 106.55 48.6773V28.7701H100.746V31.4004ZM95.44 44.914C92.3118 44.914 90.0895 42.7366 90.0895 39.2453C90.0895 35.754 92.4478 33.6228 95.44 33.6228C98.4321 33.6228 100.701 35.7989 100.701 39.2453C100.701 42.6917 98.5246 44.914 95.44 44.914Z" fill="white"/>
<path d="M122.468 28.1812C120.336 28.1812 117.888 28.9074 116.436 30.6293V18.25H110.405V51.0819H116.436V37.9764C116.572 35.5282 118.068 33.6228 120.608 33.6228C123.511 33.6228 124.735 35.5731 124.735 38.0675V51.0819H130.767V37.0243C130.767 32.1267 128.136 28.1812 122.468 28.1812Z" fill="white"/>
<path d="M147 34.1219V28.7714H142.511V22.1057H137.069V25.2352C137.069 27.2304 135.981 28.7727 133.623 28.7727H132.488V34.1232H136.524V44.5073C136.524 48.8147 139.245 51.4001 143.597 51.4001C145.365 51.4001 146.455 51.0832 146.999 50.8561V45.8687C146.682 45.9598 145.865 46.0496 145.14 46.0496C143.416 46.0496 142.509 45.4145 142.509 43.4655V34.1245H146.999L147 34.1219Z" fill="white"/>
<path d="M72.9079 16.4093C72.6477 16.4093 72.3321 16.577 72.043 16.8701C70.8678 18.0599 67.2906 21.6779 63.9499 21.6779C63.1827 21.6779 62.4049 21.1801 62.4049 20.2294C62.4049 19.9455 62.5277 19.4477 63.3477 19.2905C64.107 19.1453 65.2598 18.7531 66.2197 18.0876C66.9605 17.5753 67.8426 16.713 67.8426 15.518C67.8426 14.4405 66.946 13.6337 66.1445 13.6337C64.313 13.6337 62.2267 16.1122 61.3446 18.4085L61.3063 18.5075L61.2007 18.5115L61.169 18.5141C61.1465 18.5154 61.1241 18.5181 61.1016 18.5181C59.8446 18.5181 58.4383 17.2412 58.4383 15.5338V15.4176C58.4383 13.7974 57.9999 13.0712 57.5641 13.0712C57.1284 13.0712 56.6477 13.7723 56.6041 14.904C56.5328 16.8028 55.2956 21.2527 53.2185 21.2527C51.8465 21.2527 51.6934 18.8469 51.6907 17.8116C51.6907 17.64 51.7079 17.426 51.7277 17.1989C51.7501 16.9309 51.7752 16.6258 51.7752 16.338C51.7752 15.1892 51.3395 15.0558 51.012 15.0558C50.6845 15.0558 50.4257 15.3199 50.1946 15.8389C50.1075 16.0356 49.9768 16.4423 49.8262 16.9137C49.1119 19.1453 48.3948 21.1497 47.4811 21.1497C47.3504 21.1497 47.1959 21.0705 47.1959 20.6915C47.1959 19.1004 47.8653 17.4274 48.3526 16.2059C48.6233 15.5285 48.857 14.9436 48.857 14.6557C48.857 14.1579 48.5533 13.7671 48.1651 13.7671C47.9763 13.7671 47.7848 13.8608 47.6224 14.0259C47.151 14.6016 46.1633 18.0995 45.9797 18.9234C45.8754 19.3896 45.6826 20.2584 45.6826 21.06C45.6826 22.3078 46.1303 22.9139 47.0493 22.9139C47.9683 22.9139 48.6497 22.0067 49.2109 21.2765C49.6017 20.7695 49.883 20.4024 50.1867 20.4024C50.6608 20.4024 50.9341 20.9464 51.1982 21.4719C51.3315 21.7387 51.4702 22.0146 51.6181 22.1744C52.0089 22.5996 52.5068 22.8148 53.0957 22.8148C55.3431 22.8148 56.3968 20.0419 56.9026 18.7095C57.1363 18.0942 57.2063 17.9093 57.3885 17.9093C57.6711 17.9093 57.9893 18.1959 58.4303 18.592C59.0245 19.1255 59.838 19.857 60.794 20.0168L60.9353 20.0406L60.9273 20.2201C60.926 20.2505 60.9247 20.2822 60.9247 20.3113C60.9247 22.1322 62.2993 23.0842 63.6567 23.0842C67.4874 23.0842 71.6547 19.3856 73.2684 17.7958C73.4836 17.5845 73.6011 17.3442 73.6011 17.1184C73.6011 16.9216 73.5126 16.7447 73.337 16.5889C73.1997 16.4674 73.061 16.408 72.9092 16.408L72.9079 16.4093ZM65.7615 15.4163C65.99 15.4163 66.1379 15.5576 66.1379 15.7781C66.1379 16.1571 64.9428 17.6413 64.0951 17.6413C63.8654 17.6413 63.7175 17.4973 63.7175 17.2768C63.7175 16.7038 65.1304 15.4176 65.7602 15.4176L65.7615 15.4163Z" fill="#EF97A7"/>
<path d="M96.2511 13.7921C96.6221 13.6231 96.8347 13.355 96.8347 13.0539C96.8347 12.6433 96.4874 12.3673 95.9698 12.3673C94.5596 12.3673 93.3936 13.9954 92.6211 15.0729C92.0784 15.8309 91.8051 16.1953 91.5146 16.1953C91.3865 16.1953 91.232 16.1174 91.232 15.7437C91.232 15.4466 91.2888 15.1469 91.3443 14.8577C91.3958 14.5883 91.4446 14.3335 91.4446 14.0998C91.4446 13.5135 91.1845 13.1345 90.7831 13.1345C89.9723 13.1345 89.8033 14.5461 89.6805 15.576C89.658 15.7649 89.6369 15.9418 89.6131 16.0963C89.522 16.6931 89.3953 17.2913 89.2725 17.8683C89.18 18.3054 89.0836 18.757 89.0044 19.2047L88.9938 19.2628L88.9476 19.301C87.8252 20.232 86.8771 20.6836 86.0505 20.6836C85.3573 20.6836 85.3573 19.7658 85.3573 19.2733C85.3573 18.3662 85.5606 17.6135 85.7561 16.8859C85.9317 16.2336 86.0981 15.6183 86.0981 14.9488C86.0981 14.5619 85.8379 14.1618 85.4035 14.1618C85.0193 14.1618 84.7155 14.6253 84.4224 15.0729C84.1134 15.543 83.8229 15.988 83.3898 15.988C83.1693 15.988 82.9501 15.8414 82.6979 15.6711C82.3361 15.4281 81.8871 15.1258 81.2652 15.1258C79.0508 15.1258 76.9697 18.4876 76.9697 20.5159C76.9697 21.4917 77.4464 22.1466 78.1568 22.1466C79.4865 22.1466 81.4963 20.4881 82.2093 19.7315C82.2423 19.6959 82.2899 19.6404 82.3466 19.5731C82.7243 19.1241 83.1231 18.6844 83.4717 18.6844C83.9352 18.6844 83.9787 19.412 84.021 20.1158C84.0368 20.3917 84.0527 20.6519 84.0923 20.7945C84.3537 21.7373 84.8819 22.1955 85.7072 22.1955C86.4401 22.1955 87.3948 21.8337 88.5449 21.1206L88.7931 20.9661V21.2593L88.7892 21.3319C88.7892 21.9314 89.0453 22.3038 89.4586 22.3038C89.7782 22.3038 90.103 22.0701 90.2852 21.7082C90.4331 21.4151 90.585 21.1088 90.7395 20.7958C92.0137 18.213 93.5996 14.999 96.2498 13.7921H96.2511ZM78.8553 20.3614C78.7312 20.3614 78.5226 20.3125 78.5226 19.989C78.5226 18.7663 80.0292 16.771 81.219 16.771C81.66 16.771 82.1288 16.9836 82.1288 17.3785C82.1288 18.1311 79.6806 20.3614 78.854 20.3614H78.8553Z" fill="#EF97A7"/>
<path d="M104.314 18.7611L104.307 18.7439C104.212 18.5036 103.985 18.3491 103.726 18.3491C103.574 18.3491 103.434 18.4019 103.32 18.5036C100.919 20.611 98.7746 21.6793 96.947 21.6793C96.1799 21.6793 95.4021 21.3465 95.4021 20.3958C95.4021 19.7078 96.0029 19.144 96.7028 18.9842C98.4577 18.5854 100.84 17.6347 100.84 15.5206C100.84 14.4418 99.9432 13.6364 99.1417 13.6364C96.6869 13.6364 93.9219 17.9926 93.9219 20.3139C93.9219 22.1348 95.2965 23.0869 96.6539 23.0869C99.3331 23.0869 102.154 21.2831 104.048 19.7699C104.348 19.5309 104.455 19.1255 104.315 18.7624L104.314 18.7611ZM98.7653 15.4163C98.9898 15.4163 99.135 15.5563 99.135 15.7715C99.135 16.1386 97.9757 17.5806 97.153 17.5806C96.9286 17.5806 96.7833 17.4393 96.7833 17.2227C96.7833 16.6655 98.1539 15.4177 98.7653 15.4177V15.4163Z" fill="#EF97A7"/>
</svg>
